<?xml version="1.0" standalone="no"?>
<!DOCTYPE svg PUBLIC "-//W3C//DTD SVG 20010904//EN"
 "http://www.w3.org/TR/2001/REC-SVG-20010904/DTD/svg10.dtd">
<svg version="1.0" xmlns="http://www.w3.org/2000/svg"
 width="256.000000pt" height="256.000000pt" viewBox="0 0 256.000000 256.000000"
 preserveAspectRatio="xMidYMid meet">
<metadata>
Created by potrace 1.14, written by Peter Selinger 2001-2017
</metadata>
<g transform="translate(0.000000,256.000000) scale(0.100000,-0.100000)"
fill="#000000" stroke="none">
<path d="M1109 2549 c-183 -27 -382 -101 -527 -197 l-55 -37 -149 -1 c-162 -2
-189 -10 -209 -61 -5 -15 -10 -101 -11 -192 0 -161 -1 -167 -28 -221 -53 -106
-98 -250 -117 -375 -14 -93 -8 -334 10 -425 63 -303 201 -539 432 -736 161
-137 369 -238 576 -279 93 -19 340 -28 409 -15 25 5 63 11 85 14 22 4 58 12
80 18 22 6 45 12 50 14 6 1 39 13 75 27 334 126 588 373 741 722 45 101 80
288 84 440 6 208 -29 383 -115 575 l-38 85 0 162 c0 88 -3 170 -7 182 -3 11
-20 30 -36 42 -28 19 -43 21 -172 21 l-142 0 -70 43 c-149 91 -297 150 -453
182 -87 17 -329 25 -413 12z"/>
</g>
</svg>
